<?xml version="1.0" encoding="utf-8"?>
<!-- Generator: Adobe Illustrator 23.0.2, SVG Export Plug-In . SVG Version: 6.00 Build 0)  -->
<svg version="1.1" id="stevnsfort" xmlns="http://www.w3.org/2000/svg" xmlns:xlink="http://www.w3.org/1999/xlink" x="0px" y="0px"
	 viewBox="0 0 277.8 289.1" style="enable-background:new 0 0 277.8 289.1;" xml:space="preserve">
<style type="text/css">
	.st0{fill:#FFFFFF;}
	.st1{fill:#54A29E;}
	.st2{fill:#55798E;}
	.st3{fill:#0082AC;}
	.st4{fill:#E76126;}
</style>
<symbol  id="Kalklandet_navn_hvid_1" viewBox="-335.8 -41.9 671.5 83.8">
	<path class="st0" d="M-320.5-41.7l2,2.3v32.9h4.2l25.7-35.3h12.8l2,1.8v6.1l-23.7,34v1.6l24.7,31.8v6.3l-2.1,2h-13L-312,11.6h-6.5
		v28.5l-2,1.8h-13.4l-1.8-1.8v-80.1l1.8-1.8H-320.5z"/>
	<path class="st0" d="M-103.9-41.7l2,2.3v32.9h4.2L-72-41.7h12.8l2,1.8v6.1l-23.7,34v1.6l24.7,31.8v6.3l-2.1,2h-13l-24.2-30.2h-6.5
		v28.5l-2,1.8h-13.4l-1.8-1.8v-80.1l1.8-1.8H-103.9z"/>
	<path class="st0" d="M-192.4,41.9h-17l-4.4-19.6h-30.3l-4.4,19.6h-17.1v-2.8l19.8-80.8h33.6l19.8,80.6V41.9z M-217.3,7.1l-7.5-34.5
		h-8.3l-7.6,34.5H-217.3z"/>
	<path class="st0" d="M-130.3,27.1v13l-2.4,1.7h-48.2l-1.8-1.7v-79.9l2-1.9h14l2,1.8v65.4h32.4L-130.3,27.1z"/>
	<path class="st0" d="M53.8-41.8H29.6l-19,82.6v0.9h10.5l5.4-23.5h30.4l5.4,23.5h10.5v-1.1C66.3,13.3,60-14.2,53.8-41.8L53.8-41.8z
		 M28.6,9.1L38-33.1h7.4l9.4,42.2H28.6z"/>
	<path class="st0" d="M185.8-41.8h-28.9l-1.2,1v81.8c0.3,0.3,0.6,0.7,0.9,0.9h29.6c18.4,0,22-15.1,22-22.4v-39
		C208.2-26.7,204.7-41.8,185.8-41.8z M198.7,19.1c0,11-7.2,13.2-12,13.2h-21.2v-64.4h21.2c4.8,0,12.1,2.2,12.1,13.2L198.7,19.1z"/>
	<path class="st0" d="M138.7-41.8h-8.4l-0.9,0.8v67.9l-2-6L96.9-41.8h-12l-0.9,0.9v81.7l0.9,0.9h8.5l0.8-0.9v-67.3l1.8,5.4
		l30.4,62.7l12.3,0.1l0.8-1.1V-41L138.7-41.8z"/>
	<path class="st0" d="M313.2,41.8l0.9-0.9v-72.2h20.4l1.2-1.2V-41l-0.8-0.8h-50.7l-0.8,0.9v8.7l0.8,0.8h19.6v73.1H313.2z"/>
	<path class="st0" d="M4,31.6h-36.6v-72.5c-0.2-0.3-0.4-0.6-0.6-0.9h-9.4l-0.8,0.9v81.7l0.8,0.9H4l0.8-0.9v-8.3L4,31.6z"/>
	<polygon class="st0" points="222.6,-6.6 222.6,5.2 268.1,5.2 268.9,4.2 268.9,-5.7 268.1,-6.6 	"/>
	<polygon class="st0" points="222.6,30.5 222.6,40.6 223.8,41.8 270.8,41.8 271.6,40.8 271.6,31.5 270.7,30.5 	"/>
	<polygon class="st0" points="270.5,-41.9 223.2,-41.9 222.3,-41.1 222.3,-30.1 231.6,-30.1 231.6,-30.1 270.4,-30.1 271.3,-31.1 
		271.3,-41.1 	"/>
</symbol>
<title>Artboard 10</title>
<polygon class="st1" points="11.3,6.7 266.4,6.7 269.3,9.6 269.3,28.4 160.6,137.1 160.6,151.6 269.3,260.3 269.3,279.1 266.4,282 
	11.3,282 8.4,279.1 8.4,9.6 "/>
<use xlink:href="#Kalklandet_navn_hvid_1"  width="671.5" height="83.8" x="-335.8" y="-41.9" transform="matrix(0.32 0 0 0.32 127.3848 256.59)" style="overflow:visible;"/>
<polygon class="st2" points="-284.6,6.7 -29.5,6.7 -26.6,9.6 -26.6,28.4 -135.3,137.1 -135.3,151.6 -26.6,260.3 -26.6,279.1 
	-29.5,282 -284.6,282 -287.5,279.1 -287.5,9.6 "/>
<use xlink:href="#Kalklandet_navn_hvid_1"  width="671.5" height="83.8" x="-335.8" y="-41.9" transform="matrix(0.32 0 0 0.32 -168.4835 256.59)" style="overflow:visible;"/>
<polygon class="st3" points="-576.6,6.7 -321.5,6.7 -318.6,9.6 -318.6,28.4 -427.3,137.1 -427.3,151.6 -318.6,260.3 -318.6,279.1 
	-321.5,282 -576.6,282 -579.5,279.1 -579.5,9.6 "/>
<use xlink:href="#Kalklandet_navn_hvid_1"  width="671.5" height="83.8" x="-335.8" y="-41.9" transform="matrix(0.32 0 0 0.32 -460.4775 256.59)" style="overflow:visible;"/>
<polygon class="st4" points="-877.8,6.7 -622.7,6.7 -619.8,9.6 -619.8,28.4 -728.5,137.1 -728.5,151.6 -619.8,260.3 -619.8,279.1 
	-622.7,282 -877.8,282 -880.7,279.1 -880.7,9.6 "/>
<use xlink:href="#Kalklandet_navn_hvid_1"  width="671.5" height="83.8" x="-335.8" y="-41.9" transform="matrix(0.32 0 0 0.32 -761.7202 256.59)" style="overflow:visible;"/>
</svg>
