<svg id="stevnsfort" xmlns="http://www.w3.org/2000/svg" xmlns:xlink="http://www.w3.org/1999/xlink" viewBox="0 0 277.8 289.13"><defs><style>.cls-1{fill:#fff;}.cls-2{fill:#e76126;}</style><symbol id="Kalklandet_navn_hvid_1" data-name="Kalklandet_navn_hvid 1" viewBox="0 0 671.53 83.75"><path class="cls-1" d="M15.27.17l2,2.34V35.45H21.5L47.22.17H60l2,1.76V8L38.28,42v1.63L63,75.42v6.33l-2.1,2h-13L23.71,53.51H17.24V82l-2,1.75H1.84L0,82V1.93L1.84.17Z"/><path class="cls-1" d="M231.81.17l2,2.34V35.45H238L263.76.17h12.78l2,1.76V8L254.82,42v1.63l24.67,31.77v6.33l-2.09,2h-13L240.25,53.51h-6.47V82l-2,1.75H218.38L216.54,82V1.93L218.38.17Z"/><path class="cls-1" d="M143.37,83.74h-17L122,64.18H91.67L87.23,83.74H70.12v-2.8L89.93.17h33.63l19.81,80.64ZM118.43,49l-7.49-34.5h-8.26L95.09,49Z"/><path class="cls-1" d="M205.43,69V82L203,83.74H154.81L153,82V2.05l2-1.88h14l2,1.76v65.4h32.43Z"/><path class="cls-1" d="M389.59.05H365.38l-19,82.64v.94h10.48l5.39-23.45H392.7l5.39,23.45h10.45V82.57q-9.68-41.14-19-82.52ZM364.38,51l9.41-42.2h7.39L390.59,51Z"/><path class="cls-1" d="M521.53.05H492.66L491.48,1V82.81a7.57,7.57,0,0,0,.94.94H522c18.41,0,22-15.13,22-22.39v-39C544,15.17,540.41.05,521.53.05ZM534.44,61c0,11-7.18,13.16-12,13.16H501.2V9.8h21.15c4.79,0,12.09,2.19,12.09,13.16Z"/><path class="cls-1" d="M474.47.05h-8.39l-.94.82V68.74l-2-6L432.62.05h-12l-.93.93V82.69l.93.94h8.51l.82-.94V15.4l1.75,5.39,30.42,62.72,12.32.12.82-1.06V.87Z"/><path class="cls-1" d="M649,83.63l.94-.94V10.51h20.39l1.18-1.17V.87l-.82-.82H620l-.82.93V9.69l.82.82h19.63V83.63Z"/><path class="cls-1" d="M339.79,73.48H303.21V1a4,4,0,0,1-.59-.93h-9.37l-.82.93V82.69l.82.94h46.54l.82-.94V74.42Z"/><polygon class="cls-1" points="558.36 35.32 558.36 47.05 603.85 47.05 604.67 46.05 604.67 36.21 603.85 35.32 558.36 35.32"/><polygon class="cls-1" points="558.36 72.35 558.36 82.46 559.54 83.63 606.54 83.63 607.36 82.69 607.36 73.41 606.43 72.35 558.36 72.35"/><polygon class="cls-1" points="606.23 0 558.99 0 558.05 0.82 558.05 11.73 567.32 11.73 567.32 11.73 606.12 11.73 607.05 10.79 607.05 0.82 606.23 0"/></symbol></defs><title>Artboard 10</title><polygon class="cls-2" points="11.31 6.67 266.37 6.67 269.28 9.57 269.28 28.41 160.58 137.11 160.58 151.6 269.28 260.29 269.28 279.13 266.37 282.03 11.31 282.03 8.41 279.13 8.41 9.57 11.31 6.67"/><use width="671.53" height="83.75" transform="translate(19.94 243.19) scale(0.32 0.32)" xlink:href="#Kalklandet_navn_hvid_1"/></svg>