<svg id="stevnsfort" xmlns="http://www.w3.org/2000/svg" xmlns:xlink="http://www.w3.org/1999/xlink" viewBox="0 0 277.8 289.13"><defs><style>.cls-1{fill:#fff;}.cls-2{fill:#0082ac;}</style><symbol id="Kalklandet_navn_hvid_1" data-name="Kalklandet navn hvid 1" viewBox="0 0 671.51 83.75"><path class="cls-1" d="M15.27,83.58l2-2.34V48.3H21.5L47.22,83.58H60l2-1.76V75.75l-23.72-34V40.12L63,8.33V2L60.9,0h-13L23.71,30.24H17.24V1.75L15.24,0H1.84L0,1.75V81.82l1.84,1.76Z"/><path class="cls-1" d="M231.81,83.58l2-2.34V48.3H238l25.76,35.28h12.78l2-1.76V75.75l-23.72-34V40.12L279.49,8.35V2L277.4,0h-13L240.25,30.24h-6.47V1.75l-2-1.75h-13.4l-1.84,1.75V81.82l1.84,1.76Z"/><path class="cls-1" d="M143.37,0h-17L122,19.57H91.67L87.23,0H70.12v2.8L89.93,83.58h33.63L143.37,2.94ZM118.43,34.75l-7.49,34.5h-8.26l-7.59-34.5Z"/><path class="cls-1" d="M205.43,14.75v-13L203,0H154.81L153,1.75v80l2,1.88h14l2-1.76V16.42h32.43Z"/><path class="cls-1" d="M389.59,83.7H365.38l-19-82.64V.12h10.48l5.39,23.45H392.7L398.09.12h10.45V1.18q-9.68,41.15-19,82.52ZM364.38,32.75,373.79,75h7.39l9.41-42.2Z"/><path class="cls-1" d="M521.53,83.7H492.66l-1.18-1V.94a8.34,8.34,0,0,1,.94-.94H522c18.41,0,22,15.13,22,22.39v39C544,68.58,540.41,83.7,521.53,83.7Zm12.91-60.95c0-11-7.18-13.16-12-13.16H501.2V74h21.15c4.79,0,12.09-2.19,12.09-13.16Z"/><path class="cls-1" d="M474.47,83.7h-8.39l-.94-.82V15l-2,6L432.62,83.7h-12l-.93-.93V1.06l.93-.94h8.51l.82.94V68.35L431.7,63,462.12.24,474.44.12l.82,1.06v81.7Z"/><path class="cls-1" d="M649,.12l.94.94V73.24h20.39l1.18,1.17v8.47l-.82.82H620l-.82-.93V74.06l.82-.82h19.63V.12Z"/><path class="cls-1" d="M339.79,10.27H303.21V82.75a3.76,3.76,0,0,0-.59.93h-9.37l-.82-.93V1.06l.82-.94h46.54l.82.94V9.33Z"/><polygon class="cls-1" points="558.36 48.43 558.36 36.7 603.85 36.7 604.67 37.7 604.67 47.54 603.85 48.43 558.36 48.43"/><polygon class="cls-1" points="558.36 11.4 558.36 1.29 559.54 0.12 606.54 0.12 607.36 1.06 607.36 10.34 606.43 11.4 558.36 11.4"/><polygon class="cls-1" points="606.23 83.75 558.99 83.75 558.05 82.93 558.05 72.02 567.32 72.02 567.32 72.02 606.12 72.02 607.05 72.96 607.05 82.93 606.23 83.75"/></symbol></defs><title>kalklandet-stevnsk</title><polygon class="cls-2" points="11.31 6.67 266.37 6.67 269.28 9.57 269.28 28.41 160.58 137.11 160.58 151.6 269.28 260.29 269.28 279.13 266.37 282.03 11.31 282.03 8.41 279.13 8.41 9.57 11.31 6.67"/><use width="671.51" height="83.75" transform="matrix(0.32, 0, 0, -0.32, 19.94, 269.99)" xlink:href="#Kalklandet_navn_hvid_1"/></svg>
