<svg id="geomuseum" xmlns="http://www.w3.org/2000/svg" viewBox="0 0 399.66 598.69"><defs><style>.cls-1{font-size:69px;fill:#0380a9;font-family:LimeStone;}.cls-2{fill:#0280a9;}</style></defs><title>klintstevns</title><g id="Layer_2" data-name="Layer 2"><text class="cls-1" transform="translate(12.5 501.74)">Stevns Klint</text><path class="cls-2" d="M380,328.75c-21,.07-42.07.26-63.1-.19a38.33,38.33,0,0,0-8.92.11c.45.06,1.29-.16,1.94.46,5.68.6,11.37,1.16,17,1.83.91.11,2.15-.07,2.65.9a4.48,4.48,0,0,1,.53,2.83c-.21.86-1.38.43-2.13.48-14.87,1-29.74,2.05-44.62,3-3.14.19-6.18-.88-9.21-1.57a38.47,38.47,0,0,0-11.16-.86c-5.88.38-11.76.73-17.64,1.09l-.56,0a11,11,0,0,1-2.69.14c-1-.31-2.33.68-3.11-.7.7-.84,1.75-.5,2.62-.74,5.2-1.54,10.57-1.59,15.83-1.77-4.3-2.59-8.84-2-13.38-.62-1.23.36-2.49-.26-3.67.3H212.62c-3,.18-5.94-.45-8.93-.25-1,.06-1.95-.09-2.67.77-5.6.73-11.2,1.45-16.8,2.2-7.76,1-15.53,2-23.26,3.17-11.46,1.72-23,3.45-34.45,4.59-8,.79-13.75,5.13-20,8.91-9,5.5-17,12.59-25.41,18.91-9.61,7.18-19.09,14.55-28.62,21.84L34.74,407.18c-.87.45-1.9-.13-2.75.43a18.71,18.71,0,0,0-2.12,0c-3.51.44-3.51.45-3.67-3.12.63-4.14-.11-8.31.4-12.45,4.51-5.08,8.93-10.26,13.58-15.21C43.25,373.61,46,370,50.34,368a8.34,8.34,0,0,1,4.17-1.22h.26c9.06,1.39,16.88-2.05,24.36-6.45,3.28-1.93,5.67-5,8-8,.42-.52.15-.85,0-1.38-.82-2.39-1.19-5-2.53-7.13-.62-1-.22-1.2.52-1.53,5.95-2.66,11.93-5.27,17.84-8,1.91-.89,3.61.76,5.42.12.92-.36,1.94.09,2.84-.37l2.54-.18c.88-.37,1.89.15,2.74-.38l2.09-.13c.94-.37,2,.05,2.91-.38l2.47-.17c.89-.38,1.9.12,2.78-.39l2.6-.17c.88-.34,1.88.16,2.73-.38,1.91.16,3.95-.56,5.52,1.41.62.77,2,.18,3,.07,1.06-.42,2.24.17,3.29-.4l2.62-.14c1.06-.42,2.24.18,3.29-.4l2.62-.14c1.06-.42,2.25.18,3.29-.4l2.62-.13c1.06-.42,2.25.17,3.29-.4l2.62-.13c1.07-.43,2.27.15,3.33-.4l2.58-.14c1.07-.43,2.27.15,3.33-.4,4-.94,8-2.08,12.26-1.78,5.94-.4,11.89.19,17.82-.36,13.95-.16,27.9-.38,41.86-.45,14.84-.08,29.68,0,44.57-.44-2.57-3.36-5-6.52-9.77-4.95a7,7,0,0,1-5.93-.65,1.88,1.88,0,0,0-1-.39c-5,.64-9.72-2.28-14.89-1l.94,3.59c-9.05-2.8-18.21-1.69-27.54-2.93,1.68,3.72-.46,3.38-2.67,3.52a47.73,47.73,0,0,1-19.37-3.13c-7-2.51-14.45-3.14-21.79-4.11-3.67-.49-7.28-1.38-10.95-1.77-3.93-.42-6.63-2.74-9.76-4.82s-7.41-3.15-11.32-3.89c-2.68-.51-4.73-2.27-7.56-2.52-4.79-.43-9.49-1.82-14.26-2.55-5.11-.78-10.18-1.7-15.27-2.59-7.19-1.25-14.43-2.25-21.64-3.36a3.39,3.39,0,0,1-.72-.29c-1.6.47-3.3-.23-4.89.4a114.08,114.08,0,0,0-12.41,3.7c-8.12,2.7-16.64,3.32-25,4.9a14.23,14.23,0,0,0-5,1.38L53,308.76c.1,1.46-1.22.44-1.67.95a5.37,5.37,0,0,0-3-.45c-.9-.47-1.93,0-2.84-.39l-2.05-.14c-.87-.51-1.9,0-2.79-.4l-2-.13a4.85,4.85,0,0,0-3.36,0c-2.85.73-5.39,2.22-8.06,3.37-1.07-.22-.76-1.08-.76-1.73q0-17.3,0-34.59c0-.43-.48-1.39.72-1.19a10.93,10.93,0,0,0,2,5.18c1.45.55,3,0,4.45.38l6.23.16c2,.55,4.1,0,6.12.35l6.36.18c2.15.61,4.38-.09,6.54.38l6.23.17c2,.56,4.1-.07,6.13.36l6.3.17a34.42,34.42,0,0,0,8.84,0l2.09-.13c.91-.39,1.94.09,2.84-.38l2.54-.19c1.08-.11,2.16-.41,3.18.21a17,17,0,0,0,6.82,4.34c3.63,1.12,7.18,2.51,10.73,3.86.78.3,1.82.78,2.28.4,3.17-2.65,6.27-.75,9.4-.1a7.44,7.44,0,0,0,1.34,0c1.41.61,2.93-.06,4.35.4a45.6,45.6,0,0,0,15.09,4.73c6.45.63,11.77,3.59,17,7,2.68,1.72,5.48,3.27,8.16,5a4,4,0,0,0,3,.67c1.28.54,2.69-.09,4,.43A24.46,24.46,0,0,0,193,312.05c1.11.48,2.32,0,3.44.37l3.44.25c.21-1.48-1.28-1.13-1.64-1.87-.26-.53-1.49-.69-1-1.33,1.93-2.62-1.1-2.86-2-3.73a17,17,0,0,0-4-2.82A3.71,3.71,0,0,1,189,298.8c.48-1.11,0-2.32.38-3.44.71-3.88-1.31-7.26-2.06-10.86-1.08-5.12-2.87-10.09-4.06-15.19-.36-1.55-.91-1.64-2.12-1.44-1.49.25-3.11.12-4.48.66-2.72,1.08-4.68-.18-6.69-1.62-2.59-1.86-5.16-3.76-7.79-5.58-1.31-.91-2.57-2.23-4.44-1.14-.54.31-1,0-1.42-.43-4-4.12-8.73-7.42-12.58-11.7-.92-1-1.71-2-1.46-3.5a1.35,1.35,0,0,0-.76-1.47c-8.3-5.15-16.84-9.76-26.16-12.86-1.26-.42-1.55-.18-2.11.78-4.34,7.39-8.73,14.75-13.45,22.69v-2.84c.51-.87,0-1.89.39-2.78l.16-2.54c.47-.9,0-1.93.38-2.84.59-3-2.27-2.44-3.57-3.2-2.43-1.4-2.66-1.54-.34-3.19,3.37-2.4,6-5.61,9.51-7.87,1.25-.82,1-1.68-.38-2.43-3.83-2.08-7.56-4.36-11.4-6.43-1.45-.78-2-1.3-.8-2.9,1.58-2.08,2.73-4.49,4.22-6.64a2.74,2.74,0,0,0,.18-3.33c-1.77-3.44-5-5.32-7.68-7.75a57.48,57.48,0,0,0-15.72-10.22c-1.47-.62-2-2.5-2.63-3.87-3.26-6.66-8.51-11.39-14.31-15.73-3.14-2.35-5.9-5.2-9-7.65-3.9-3.11-8.9-3.69-13.41-5.41-3.07-1.18-6.4-1.81-8.88-4.23-.19-5.35-.24-10.71,0-16.07q.06-20.39.13-40.77c.68-1.4-.19-3,.52-4.38,6.06-1,12.13-1.92,18.17-3a7.17,7.17,0,0,1,5.52,1c14.18,9,28.45,18,42.69,26.92a5.72,5.72,0,0,1,1.9,1.41c3.39,5.27,7.24,10.27,10.11,15.88-.5,1.08,0,2.27-.37,3.37l-.16,3.13c-.53,1.06,0,2.23-.36,3.31a4.59,4.59,0,0,0,1.05,4.32,2.59,2.59,0,0,0,.23.76,7.67,7.67,0,0,1,0,9c-1,1.56-.5,2.58.77,3.63,1.1.9,2,2.07,3.13,2.93,3.06,2.37,5.43,4.86,2.69,9-.56.85-.1,1.75.12,2.59a56.75,56.75,0,0,0,1.78,6.18c2.84,7.18,3,14.58,2.16,22.12-.26,2.43.5,4.77,1,7.39,5.79-3.43,12.17-3.29,18.42-3.2,5,.08,9.79,1.91,14.72,2.75a4.66,4.66,0,0,0,.77.21c3.73,0,5.89,1.87,6.82,5.42.35,1.34.92,2.62,2.73,1.24.75-.56,1.75-.13,2.61.05,3.33.69,6.64,1.45,10,2.11,1.46.29,2.56.71,2.19,2.54-.49,2.41.64,3.51,3,4s4.92,1.21,5.41,4.35c.15,1,1.1.94,1.94,1a5.49,5.49,0,0,1,5.36,5.76,13.71,13.71,0,0,0,1.38,6.75c1.06.21,1.26-1.16,2.3-1.23,1.28,2.19,2.53,4.46,3.93,6.64a5.46,5.46,0,0,1,.52,3.37c-.08,4.16-.09,4.15,3.91,5.64a14.74,14.74,0,0,1,1.74.71,6.85,6.85,0,0,0,6.39.15c2.66-1.26,5.3-.16,7.91.2,6.46.89,12.88,2.1,19.35,2.93a26.53,26.53,0,0,1,10.6,3.4c1.76,1.06,3.77,1.73,5.42,2.92,2.26,1.64,4.23,1.38,6.3-.17a3.79,3.79,0,0,1,5.05.1c.71.53,1.58.84,2.32,1.34a17.1,17.1,0,0,0,12.33,3.29c.92-.12,2-.3,2.74.62,3.07,3.79,7.37,5.92,11.42,8.33,1.59.94,1.57,1.67.78,3.09-2.14,3.82-4,7.8-6.25,11.55a15.54,15.54,0,0,0-2.33,8.11,15.37,15.37,0,0,1-3.68,10.62c-1.29,1.47-1,2.45.63,3.27a1.12,1.12,0,0,1,.22.16c5.15,5,11.2,6.34,18.44,6.3"/></g></svg>
