<svg xmlns="http://www.w3.org/2000/svg" viewBox="0 0 179.04 44.16"><defs><style>.cls-1,.cls-2{fill:#e76126;}.cls-2{font-size:25px;font-family:LimeStone-Bold, LimeStone;font-weight:700;}.cls-3{letter-spacing:0.04em;}</style></defs><title>nytlogo-orange</title><g id="Layer_1_copy_Image" data-name="Layer 1 copy Image"><path class="cls-1" d="M.07.45A4.11,4.11,0,0,1,1.59.25H39.74c1.58,0,1.5,0,1.64,1.62a4,4,0,0,1-1.46,3.52c-5,4.89-9.92,9.87-14.87,14.82a2.64,2.64,0,0,0,0,3.85c5,5,10,10.13,15.13,15.07,1.56,1.5,1.32,3,1,4.76Q21,43.89,1,43.91c-.75,0-.92-.17-.92-.92Q.1,21.72.07.45Z"/><text class="cls-2" transform="translate(43.02 43.81)">KALK<tspan class="cls-3" x="52.67" y="0">L</tspan><tspan x="65.85" y="0">ANDET</tspan></text></g></svg>
