<svg xmlns="http://www.w3.org/2000/svg" viewBox="0 0 179.04 44.16"><defs><style>.cls-1{fill:#0082ad;}</style></defs><title>nytlogo-stevnsklint</title><g id="Layer_1_copy_Image" data-name="Layer 1 copy Image"><path class="cls-1" d="M.07.45A4.11,4.11,0,0,1,1.59.25H39.74c1.58,0,1.5,0,1.64,1.62a4,4,0,0,1-1.46,3.52c-5,4.89-9.92,9.87-14.87,14.82a2.64,2.64,0,0,0,0,3.85c5,5,10,10.13,15.13,15.07,1.56,1.5,1.32,3,1,4.76Q21,43.89,1,43.91c-.75,0-.92-.17-.92-.92Q.1,21.72.07.45Z"/><path class="cls-1" d="M49.59,35.07v.32c1.93,2.4,3.9,4.9,5.8,7.3v1l-.3.35H53.37c-2-2.35-3.88-4.87-5.9-7.35h-1.2v7l-.33.35H44.17l-.33-.35V26.52l.33-.35h1.77l.33.35V34.3h1c1.85-2.68,3.8-5.48,5.65-8.13h1.63l.32.35v.9Z"/><path class="cls-1" d="M65.89,26.57l4,16.92V44H67.49l-1.1-4.85H60c-.32,1.55-.75,3.33-1,4.85H56.6v-.47l3.89-17,.45-.4h4.65Zm-.1,10.17c-.57-2.8-1.2-5.42-1.77-8.24H62.39l-1.8,8.24Z"/><path class="cls-1" d="M81.67,41.94v1.7l-.3.35H71.52l-.33-.35V26.52l.38-.35h1.75l.3.35v15.1h7.77Z"/><path class="cls-1" d="M88.92,35.07v.32c1.92,2.4,3.9,4.9,5.8,7.3v1l-.3.35H92.69c-2-2.35-3.87-4.87-5.9-7.35h-1.2v7l-.32.35H83.49l-.32-.35V26.52l.32-.35h1.78l.32.35V34.3h1c1.85-2.68,3.8-5.48,5.65-8.13h1.62l.33.35v.9Z"/><path class="cls-1" d="M107.07,41.94v1.7l-.3.35H96.92l-.33-.35V26.52l.38-.35h1.75l.3.35v15.1h7.77Z"/><path class="cls-1" d="M118.39,26.57l4,16.92V44H120l-1.1-4.85h-6.35c-.32,1.55-.75,3.33-1.05,4.85h-2.4v-.47l3.9-17,.45-.4h4.65Zm-.1,10.17c-.57-2.8-1.2-5.42-1.77-8.24h-1.63l-1.8,8.24Z"/><path class="cls-1" d="M135.67,26.52v17.1l-.28.37H133l-5.8-11.6-.68-1.84V43.64l-.32.35h-1.75l-.33-.35V26.55l.33-.35h2.32l6,11.89.55,1.63V26.52l.35-.32h1.73Z"/><path class="cls-1" d="M149.59,31v8.1A4.6,4.6,0,0,1,144.77,44H139l-.45-.37V26.47l.43-.32h5.7A4.64,4.64,0,0,1,149.59,31Zm-2.37.08a2.22,2.22,0,0,0-2.35-2.53H141v13h3.92a2.22,2.22,0,0,0,2.33-2.53Z"/><path class="cls-1" d="M152.27,43.59V26.5l.35-.33h10l.3.33v1.75l-.33.35h-7.9v4.79H162l.33.33v1.75l-.33.32h-7.35v5.83h7.93l.3.37v1.65l-.3.35h-10Z"/><path class="cls-1" d="M168.47,44V28.62h-4.13L164,28.3V26.52l.32-.35h10.73l.3.33v1.72l-.38.4h-4.1v15l-.32.35Z"/></g></svg>
