<svg xmlns="http://www.w3.org/2000/svg" viewBox="0 0 179.04 44.16"><defs><style>.cls-1{fill:#55798e;}</style></defs><title>nytlogo-stevnsfort</title><g id="Layer_1_copy_Image" data-name="Layer 1 copy Image"><path class="cls-1" d="M.07.45A4.11,4.11,0,0,1,1.59.25H39.74c1.58,0,1.5,0,1.64,1.62a4,4,0,0,1-1.46,3.52c-5,4.89-9.92,9.87-14.87,14.82a2.64,2.64,0,0,0,0,3.85c5,5,10,10.13,15.13,15.07,1.56,1.5,1.32,3,1,4.76Q21,43.89,1,43.91c-.75,0-.92-.17-.92-.92Q.1,21.72.07.45Z"/><path class="cls-1" d="M49.59,35.5v.33c1.93,2.4,3.9,4.89,5.8,7.29v1l-.3.35H53.37c-2-2.35-3.88-4.87-5.9-7.34h-1.2v7l-.33.35H44.17l-.32-.35V27l.32-.35h1.77l.33.35v7.78h1c1.85-2.68,3.8-5.48,5.65-8.13h1.63l.32.35v.9Z"/><path class="cls-1" d="M65.89,27l4,16.92v.5H67.49l-1.1-4.84H60c-.32,1.55-.75,3.32-1,4.84H56.6V44l3.89-17,.45-.4h4.65Zm-.1,10.18c-.57-2.8-1.2-5.43-1.77-8.25H62.39l-1.8,8.25Z"/><path class="cls-1" d="M81.67,42.37v1.7l-.3.35H71.52l-.33-.35V27l.38-.35h1.75l.3.35v15.1h7.77Z"/><path class="cls-1" d="M88.92,35.5v.33c1.92,2.4,3.9,4.89,5.8,7.29v1l-.3.35H92.69c-2-2.35-3.87-4.87-5.9-7.34h-1.2v7l-.32.35H83.49l-.32-.35V27l.32-.35h1.78l.32.35v7.78h1c1.85-2.68,3.8-5.48,5.65-8.13h1.62l.33.35v.9Z"/><path class="cls-1" d="M107.07,42.37v1.7l-.3.35H96.92l-.33-.35V27L97,26.6h1.75L99,27v15.1h7.77Z"/><path class="cls-1" d="M118.39,27l4,16.92v.5H120l-1.1-4.84h-6.35c-.32,1.55-.75,3.32-1.05,4.84h-2.4V44L113,27l.45-.4h4.65Zm-.1,10.18c-.57-2.8-1.2-5.43-1.77-8.25h-1.63l-1.8,8.25Z"/><path class="cls-1" d="M135.67,27v17.1l-.28.37H133l-5.8-11.59L126.49,31V44.07l-.32.35h-1.75l-.33-.35V27l.33-.35h2.32l6,11.9.55,1.62V27l.35-.32h1.73Z"/><path class="cls-1" d="M149.59,31.45v8.1a4.59,4.59,0,0,1-4.82,4.87H139l-.45-.37V26.9l.43-.32h5.7A4.64,4.64,0,0,1,149.59,31.45Zm-2.37.08A2.22,2.22,0,0,0,144.87,29H141v13h3.92a2.21,2.21,0,0,0,2.33-2.52Z"/><path class="cls-1" d="M152.27,44V26.93l.35-.33h10l.3.33v1.75l-.33.35h-7.9v4.8H162l.33.32V35.9l-.33.33h-7.35v5.82h7.93l.3.37v1.65l-.3.35h-10Z"/><path class="cls-1" d="M168.47,44.42V29.05h-4.13l-.32-.32V27l.32-.35h10.73l.3.33v1.72l-.38.4h-4.1v15l-.32.35Z"/></g></svg>
