<svg id="Layer_1" data-name="Layer 1" xmlns="http://www.w3.org/2000/svg" viewBox="0 0 598.69 762.32"><defs><style>.cls-1{fill:#0080a8;}.cls-2{fill:#87bcd1;}.cls-3{fill:#0181a8;}.cls-4{fill:#fdfdfd;}.cls-5{fill:#0683aa;}.cls-6{fill:#68acc6;}.cls-7{fill:#c5dee8;}.cls-8{fill:#c3dde7;}.cls-9{fill:#3897b7;}.cls-10{fill:#5da7c2;}.cls-11{fill:#fefefe;}.cls-12{fill:#fdfdfe;}</style></defs><title>Stevns-klint-</title><path class="cls-1" d="M15.05,415.57a13.32,13.32,0,0,0,2.47,6.28c1.75.66,3.62-.07,5.39.46l7.55.19c2.45.67,5-.05,7.43.42l7.71.22c2.61.75,5.31-.11,7.93.47l7.55.2c2.45.68,5-.08,7.43.44l7.64.21a41.89,41.89,0,0,0,10.73,0l2.53-.16c1.11-.47,2.35.11,3.45-.46l3.08-.23c1.3-.13,2.61-.49,3.85.26a20.44,20.44,0,0,0,8.27,5.25c4.4,1.37,8.71,3.05,13,4.69,1,.36,2.21,1,2.77.48,3.84-3.21,7.6-.9,11.4-.11a8.73,8.73,0,0,0,1.62.05c1.7.75,3.55-.07,5.28.49,5.82,2.8,11.89,5.1,18.3,5.73,7.81.77,14.27,4.35,20.64,8.43,3.26,2.09,6.65,4,9.9,6.07a5,5,0,0,0,3.67.81c1.56.65,3.27-.11,4.83.52a29.64,29.64,0,0,0,16.67,5.35c1.35.57,2.82,0,4.18.45l4.16.29c.26-1.79-1.54-1.36-2-2.26-.31-.64-1.81-.83-1.24-1.61,2.34-3.18-1.33-3.47-2.4-4.53a21,21,0,0,0-4.86-3.42,4.48,4.48,0,0,1-2.71-5c.57-1.34,0-2.81.45-4.17.86-4.7-1.58-8.81-2.5-13.17-1.31-6.21-3.48-12.24-4.92-18.42-.44-1.87-1.1-2-2.57-1.75-1.81.3-3.78.15-5.43.8-3.3,1.31-5.68-.22-8.11-2-3.15-2.26-6.27-4.56-9.45-6.76-1.59-1.11-3.11-2.71-5.39-1.39-.65.38-1.23,0-1.71-.52-4.85-5-10.6-9-15.26-14.19-1.12-1.25-2.07-2.4-1.78-4.24a1.62,1.62,0,0,0-.91-1.79c-10.07-6.24-20.43-11.83-31.72-15.59-1.54-.51-1.89-.21-2.57.94-5.26,9-10.59,17.89-16.31,27.53V387.4c.62-1.06,0-2.29.47-3.38l.2-3.07c.57-1.09,0-2.34.47-3.45.7-3.6-2.75-3-4.34-3.88-2.94-1.7-3.22-1.87-.41-3.87,4.08-2.9,7.32-6.8,11.54-9.55,1.51-1,1.21-2-.47-2.94-4.65-2.53-9.17-5.28-13.82-7.8-1.75-.95-2.44-1.58-1-3.51,1.92-2.53,3.31-5.45,5.12-8.06a3.31,3.31,0,0,0,.21-4c-2.14-4.17-6-6.45-9.31-9.4a69.7,69.7,0,0,0-19.06-12.39c-1.78-.76-2.37-3-3.19-4.7-4-8.07-10.32-13.81-17.35-19.07-3.81-2.84-7.15-6.3-10.88-9.27-4.74-3.78-10.8-4.48-16.26-6.57-3.73-1.43-7.76-2.19-10.77-5.12-.23-6.5-.29-13,0-19.49q.09-24.72.17-49.44c.82-1.7-.23-3.62.62-5.31,7.35-1.19,14.71-2.33,22-3.6a8.69,8.69,0,0,1,6.69,1.26c17.2,11,34.5,21.77,51.77,32.64a7,7,0,0,1,2.3,1.71c4.12,6.39,8.78,12.45,12.26,19.25-.6,1.32,0,2.76-.44,4.09-.07,1.27-.13,2.53-.2,3.8-.64,1.28,0,2.71-.44,4a5.61,5.61,0,0,0,1.27,5.24,3.73,3.73,0,0,0,.29.91c2.45,3.62,2.23,7.29,0,10.87-1.17,1.89-.61,3.13.93,4.39,1.34,1.1,2.43,2.51,3.79,3.57,3.72,2.87,6.59,5.89,3.28,10.86-.69,1-.14,2.12.13,3.14a68.36,68.36,0,0,0,2.17,7.49c3.44,8.71,3.63,17.69,2.62,26.82-.33,2.95.6,5.79,1.24,9,7-4.16,14.76-4,22.34-3.88,6,.09,11.87,2.31,17.85,3.33a5.76,5.76,0,0,0,.94.26c4.52,0,7.13,2.26,8.26,6.57.43,1.63,1.11,3.17,3.31,1.51.91-.69,2.12-.16,3.17.06,4,.83,8,1.75,12.09,2.55,1.77.35,3.11.87,2.66,3.08-.6,2.93.76,4.25,3.59,4.84s6,1.47,6.56,5.27c.19,1.19,1.34,1.15,2.36,1.19a6.66,6.66,0,0,1,6.5,7,16.65,16.65,0,0,0,1.67,8.18c1.28.26,1.53-1.41,2.79-1.48,1.55,2.64,3.07,5.4,4.77,8,.85,1.34.65,2.71.63,4.09-.1,5-.12,5,4.74,6.85a17.54,17.54,0,0,1,2.11.85,8.28,8.28,0,0,0,7.74.18c3.23-1.53,6.43-.19,9.59.24,7.84,1.08,15.63,2.55,23.47,3.55a32.31,32.31,0,0,1,12.86,4.13c2.13,1.28,4.57,2.09,6.57,3.54,2.74,2,5.13,1.68,7.64-.2a4.61,4.61,0,0,1,6.13.11c.85.66,1.91,1,2.8,1.64,4.52,3.11,9.4,4.72,15,4,1.12-.14,2.41-.37,3.32.76,3.72,4.59,8.93,7.17,13.85,10.1,1.92,1.14,1.9,2,.94,3.75-2.6,4.63-4.86,9.45-7.58,14a18.78,18.78,0,0,0-2.82,9.84,18.65,18.65,0,0,1-4.46,12.87c-1.57,1.79-1.19,3,.76,4a1,1,0,0,1,.26.19c6.25,6.11,13.59,7.68,22.37,7.64,78.49-.33,157-.2,235.48-.15,1.3,0,3.44-1.12,3.46,1.88,0,2-.43,2.81-2.66,2.79-9-.08-18,.07-27,.08-38.65,0-77.3,0-116,.12-25.51.09-51,.32-76.52-.22a46.34,46.34,0,0,0-10.82.13c.55.07,1.57-.19,2.36.56,6.89.72,13.78,1.41,20.66,2.22,1.11.13,2.61-.09,3.22,1.09a5.47,5.47,0,0,1,.63,3.43c-.25,1.05-1.67.52-2.58.58-18,1.23-36.06,2.48-54.11,3.6-3.8.24-7.49-1.06-11.16-1.9a46.38,46.38,0,0,0-13.53-1l-21.39,1.32-.68,0a13.7,13.7,0,0,1-3.26.17c-1.24-.38-2.83.82-3.78-.85.85-1,2.12-.61,3.18-.9,6.31-1.87,12.82-1.93,19.19-2.14-5.21-3.15-10.72-2.38-16.22-.76-1.5.44-3-.31-4.46.37H239.92c-3.62.23-7.21-.53-10.83-.3-1.16.08-2.36-.1-3.24.94q-10.18,1.32-20.37,2.66c-9.41,1.26-18.82,2.44-28.21,3.85-13.89,2.09-27.83,4.19-41.77,5.57-9.69,1-16.67,6.21-24.19,10.8C100.37,517.73,90.76,526.32,80.5,534c-11.66,8.71-23.15,17.65-34.71,26.49L24.22,577c-1.06.55-2.3-.15-3.34.52a24.25,24.25,0,0,0-2.56,0c-4.27.54-4.27.55-4.46-3.78.77-5-.14-10.08.49-15.1,5.47-6.16,10.83-12.43,16.47-18.44,3.72-4,7.09-8.34,12.31-10.73,1.68-.77,3.18-1.61,5.06-1.48a1.71,1.71,0,0,1,.32,0c11,1.69,20.47-2.49,29.54-7.82,4-2.34,6.87-6.06,9.74-9.67.5-.63.17-1-.05-1.67-1-2.9-1.43-6-3.06-8.65-.75-1.2-.27-1.46.63-1.86,7.22-3.22,14.46-6.38,21.63-9.71,2.33-1.08,4.38.92,6.58.15,1.11-.44,2.35.11,3.44-.45l3.08-.21c1.07-.45,2.29.18,3.33-.47l2.53-.16c1.14-.45,2.4.07,3.52-.46l3-.2c1.08-.46,2.31.14,3.37-.47l3.15-.22c1.07-.41,2.28.2,3.32-.45,2.31.19,4.78-.69,6.69,1.71.75.93,2.42.21,3.66.08,1.29-.51,2.72.21,4-.49l3.18-.16c1.29-.51,2.72.21,4-.49l3.19-.16c1.28-.51,2.72.21,4-.49l3.19-.17c1.28-.51,2.71.22,4-.48l3.18-.15c1.3-.53,2.75.18,4-.49l3.14-.16c1.3-.53,2.74.18,4-.49,4.89-1.15,9.76-2.52,14.87-2.17,7.2-.47,14.42.24,21.61-.43,16.92-.19,33.84-.45,50.76-.54,18-.1,36,0,54-.53-3.12-4.09-6.09-7.92-11.85-6a8.47,8.47,0,0,1-7.2-.78,2.3,2.3,0,0,0-1.19-.47c-6.06.78-11.79-2.77-18.06-1.19l1.14,4.35c-11-3.39-22.08-2-33.4-3.55,2,4.51-.55,4.09-3.23,4.26-8.15.52-15.82-1-23.5-3.79-8.47-3-17.51-3.8-26.42-5-4.44-.59-8.82-1.67-13.27-2.14-4.77-.51-8-3.33-11.84-5.85s-9-3.82-13.72-4.72c-3.25-.62-5.74-2.75-9.17-3.06-5.81-.51-11.5-2.2-17.29-3.09-6.2-.95-12.35-2.06-18.52-3.13-8.72-1.52-17.5-2.73-26.25-4.09a3.84,3.84,0,0,1-.86-.34c-2,.56-4-.28-5.94.48a137.51,137.51,0,0,0-15,4.49c-9.84,3.28-20.18,4-30.28,5.94-2,.38-4,.48-6.06,1.67l4.59,3.55c.12,1.77-1.48.55-2,1.16a6.67,6.67,0,0,0-3.66-.55c-1.09-.57-2.34,0-3.44-.47l-2.48-.17c-1.07-.62-2.3,0-3.38-.48l-2.49-.17a6,6,0,0,0-4.08,0c-3.46.89-6.53,2.69-9.78,4.09-1.29-.26-.92-1.31-.92-2.09q0-21,0-41.95C14.18,416.49,13.59,415.33,15.05,415.57Z"/><path class="cls-2" d="M357.9,482.31c-1.83.13-3.65.23-5.32-1,4.6-.21,9.19-.53,13.78.27C363.58,482.36,360.63,481,357.9,482.31Z"/><path class="cls-3" d="M208.92,436.51a21.57,21.57,0,0,1-5,.92c-.88,0-2,.32-1.51,1.46.82,2.1-1,1.72-1.66,1.62q-6.62-1-13.17-2.33c-4.6-.94-5.52-4.87-6.59-8.58s-2-7.64-3.12-11.45c-.13-.47-.8-.88-.19-1.37a1.29,1.29,0,0,1,1.51,0c3.27,2,6.94,3.36,9.31,6.69,4.57,6.44,10.27,11.27,18.5,12.27A8.63,8.63,0,0,1,208.92,436.51Z"/><path class="cls-4" d="M273.61,487.54c5.38-2.32,11-2.63,16.79-2.53,2.52.05,2.89,3.16,5.3,3.47l-20.6,1.59c.51-.35,1.49-.88,1.44-1C276.05,487.74,274.86,487.54,273.61,487.54Z"/><path class="cls-5" d="M76.32,485.11c.91,3.51,4,5.89,5.49,10.16a22.76,22.76,0,0,1-6.33-6c-.8-1.05-1.37-1.91-2.74-1.74S70,487.17,70,486.09c0-1.35.1-3.21,2.23-3.72a10,10,0,0,1,3.41-.63C76.5,482.74,75.6,484.09,76.32,485.11Z"/><path class="cls-4" d="M15.05,415.57c-1,.55-.65,1.51-.66,2.32q0,20.43,0,40.86c0,.8-.34,1.78.69,2.3-1.57.61-1.25-.66-1.25-1.37q0-22,0-43.92c0-.47-.23-1.2.58-1.19C14.62,414.57,14.83,415.22,15.05,415.57Z"/><path class="cls-4" d="M229,481.13a205,205,0,0,1-21.61.43c5.18-1.07,10.42-.17,15.62-.51,1.16-.07,2.68.68,3.29-1.11l.17-.11C227.22,480.37,227.87,481.18,229,481.13Z"/><path class="cls-4" d="M225.85,488.18c.07-.4,0-1,.57-1,4.5.17,9-.49,13.5.33-1.26,1.4-3.29.17-4.61,1.35-.34-.27-.32-.51,0-.73C232.19,487.09,229,487.45,225.85,488.18Z"/><path class="cls-4" d="M14.33,247.85l0,19.49A76.13,76.13,0,0,1,14.33,247.85Z"/><path class="cls-4" d="M14.35,558.64c-.35,5,.31,10.09-.49,15.1C14.06,568.71,13.19,563.64,14.35,558.64Z"/><path class="cls-4" d="M86.88,424.43c-3.57,1-7.15.5-10.73,0Z"/><path class="cls-6" d="M271.92,491c1.17,1,2.65.13,3.91.63.15.25.09.43-.19.52h-5.71A1.51,1.51,0,0,1,271.92,491Z"/><path class="cls-4" d="M53.53,423.61a30.13,30.13,0,0,1-7.93-.47C48.24,423.3,50.94,422.54,53.53,423.61Z"/><path class="cls-4" d="M37.89,422.92a26.46,26.46,0,0,1-7.43-.42C32.94,422.62,35.46,421.92,37.89,422.92Z"/><path class="cls-4" d="M68.51,424.25a26.8,26.8,0,0,1-7.42-.44C63.56,423.93,66.09,423.21,68.51,424.25Z"/><path class="cls-4" d="M93.2,442c1.94-.69,4-.5,5.94-.48C97.23,442.52,95.18,441.78,93.2,442Z"/><path class="cls-4" d="M15.12,193.1c-.66,1.72.27,3.62-.62,5.31C14.73,196.64,13.81,194.74,15.12,193.1Z"/><path class="cls-4" d="M22.91,422.31c-1.81,0-3.65.37-5.39-.46C19.32,422,21.19,421.27,22.91,422.31Z"/><path class="cls-4" d="M142.14,434.69c-1.77-.1-3.6.5-5.28-.49C138.62,434.37,140.46,433.64,142.14,434.69Z"/><path class="cls-7" d="M230.76,488.88c-1.16,1.19-2.52.54-3.84,0h3.86Z"/><path class="cls-8" d="M235.35,488.16c0,.24,0,.48,0,.73h-4.55l0,0C232.13,487.58,233.86,488.59,235.35,488.16Z"/><path class="cls-4" d="M199.48,456.25c-1.62-.08-3.26.1-4.83-.52C196.26,455.87,198,455.12,199.48,456.25Z"/><path class="cls-4" d="M220.33,462.05a9.27,9.27,0,0,1-4.18-.45C217.55,461.68,219,461.08,220.33,462.05Z"/><path class="cls-9" d="M226.26,479.94c-.27-.15-.63-.24-.78-.47-.34-.51-1.58-1-.62-1.65s.92.7,1.34,1.13c.18.19.16.58.23.88Z"/><path class="cls-10" d="M44.39,458.76l2-1.16c.31.27.87.53.88.81,0,.58-.57.44-1,.43Z"/><path class="cls-4" d="M192.48,483.73a8.17,8.17,0,0,1-4,.49C189.69,483.23,191.13,483.84,192.48,483.73Z"/><path class="cls-4" d="M185.31,484.38a8.14,8.14,0,0,1-4,.49C182.52,483.89,184,484.49,185.31,484.38Z"/><path class="cls-4" d="M178.1,485a7.74,7.74,0,0,1-4,.48C175.35,484.55,176.76,485.14,178.1,485Z"/><path class="cls-4" d="M24.86,457c1.35-1,2.72-.57,4.08,0Z"/><path class="cls-4" d="M170.93,485.67a7.74,7.74,0,0,1-4,.49C168.18,485.2,169.6,485.79,170.93,485.67Z"/><path class="cls-4" d="M211.75,441.36a9.23,9.23,0,0,1-.45,4.17C211.38,444.13,210.78,442.66,211.75,441.36Z"/><path class="cls-4" d="M163.76,486.32a7.73,7.73,0,0,1-4,.49C161,485.85,162.43,486.44,163.76,486.32Z"/><path class="cls-4" d="M156.6,487a7.76,7.76,0,0,1-4,.49C153.84,486.5,155.26,487.1,156.6,487Z"/><path class="cls-4" d="M99.79,423.84c-1.25-.6-2.58,0-3.85-.26C97.27,422.91,98.58,422.63,99.79,423.84Z"/><path class="cls-4" d="M109.1,256.27a7.86,7.86,0,0,1,.44-4C109.45,253.59,110,255,109.1,256.27Z"/><path class="cls-4" d="M109.74,248.45a8.28,8.28,0,0,1,.44-4.09C110.1,245.73,110.67,247.17,109.74,248.45Z"/><path class="cls-4" d="M37.29,457.74a6.06,6.06,0,0,1,3.44.47C39.57,458.16,38.33,458.66,37.29,457.74Z"/><path class="cls-4" d="M31.43,457.09a6,6,0,0,1,3.38.48C33.67,457.5,32.44,458,31.43,457.09Z"/><path class="cls-4" d="M76.32,485.11l-.67-3.37C76.84,482.68,76.21,484,76.32,485.11Z"/><path class="cls-4" d="M142.26,485.67a5.42,5.42,0,0,1-3.32.45C140,485.28,141.14,485.75,142.26,485.67Z"/><path class="cls-4" d="M135.79,486.34a5.74,5.74,0,0,1-3.37.47C133.44,485.92,134.66,486.41,135.79,486.34Z"/><path class="cls-4" d="M129.42,487a6.52,6.52,0,0,1-3.52.46C127,486.54,128.24,487.07,129.42,487Z"/><path class="cls-4" d="M92.86,423.81a6.38,6.38,0,0,1-3.45.46C90.46,423.36,91.69,423.86,92.86,423.81Z"/><path class="cls-4" d="M123.37,487.63a5.54,5.54,0,0,1-3.33.47C121.05,487.23,122.25,487.71,123.37,487.63Z"/><path class="cls-4" d="M117,488.31a6.24,6.24,0,0,1-3.44.45C114.57,487.87,115.8,488.36,117,488.31Z"/><path class="cls-4" d="M103.59,384a6,6,0,0,1-.47,3.38C103.19,386.26,102.7,385.05,103.59,384Z"/><path class="cls-4" d="M104.26,377.5a6.1,6.1,0,0,1-.47,3.45C103.84,379.78,103.34,378.55,104.26,377.5Z"/><path class="cls-4" d="M275.64,492.12c.07-.17.13-.34.19-.52l3.13,0C278,492.52,276.76,492,275.64,492.12Z"/><path class="cls-4" d="M20.88,577.47a6,6,0,0,1,3.34-.52C23.23,577.89,22,577.38,20.88,577.47Z"/><path class="cls-11" d="M285.86,451.49c-2.64-2.77-5.33-3.84-7-6.29a14.8,14.8,0,0,1-2.28-7c-.25-2.55,4.71-6.61,7.25-6,3.05.73,6.13,1.41,9.12,2.35,2.15.67,3.77.5,4.91-1.6.83-1.51,1.81-1.68,2.94-.27a5.83,5.83,0,0,0,5.78,2.13,6.41,6.41,0,0,1,1,0c3.67.06,8.13-1.14,10.82.52,3,1.83,4.31,6.28,6.32,9.61.39.63,1,1.42.87,2-1.15,7.19-2.36,14.36-8.12,19.66a5.11,5.11,0,0,1-3.77,1.43q-22.48-.07-44.95,0c-1.73,0-3.05-.09-2.8-2.32.18-1.66-1-2.14-2.24-2.07-6.75.36-11.89-3.25-17.23-6.61-7-4.37-13.54-9.46-21.67-11.66-1.3-.35-1.58-1-1.47-2.36.27-3.35.17-6.73.39-10.08.24-3.76.79-7.29-2.57-10.43-1.58-1.47-1.67-4.52-2.76-7.85,5.6,3.28,10.31,6,15,8.81a6.94,6.94,0,0,0,5.43,1.12c2.87-.59,5.7.9,8.55,1.53,1.31.29.48,1.18.22,1.76-.7,1.56-1.5,3.08-2.37,4.83,3.42.51,6.52,1,9.63,1.41a6.07,6.07,0,0,0,2.25,0c.72-.19,1.11-2,2.16-.43.66,1,2.22,1.8,1.19,3.33-.74,1.09-1.1,3.35-2.71,2.78-6.38-2.3-7.65,2.64-9.86,6.6C259.94,450.89,272.62,450,285.86,451.49Z"/><path class="cls-12" d="M311.89,486.38c2.37-.27,4.8-1.05,7.08-.71,9.13,1.35,17.79-1.72,26.69-2.45A15.91,15.91,0,0,1,352,484.4c7.85,2.66,15.84,1.66,23.82,1.24,1.95-.11,3.67.06,4.78,2.47-2,.19-3.78.44-5.62.54q-22.38,1.16-44.76,2.28c-1.41.08-2.82.32-3.68-1.27-.49-.92-1.5-.72-2.33-.84l-12.39-1.77Z"/></svg>
