<?xml version="1.0" standalone="no"?>
<!DOCTYPE svg PUBLIC "-//W3C//DTD SVG 20010904//EN"
 "http://www.w3.org/TR/2001/REC-SVG-20010904/DTD/svg10.dtd">
<svg version="1.0" xmlns="http://www.w3.org/2000/svg"
 width="290.000000pt" height="290.000000pt" viewBox="0 0 290.000000 290.000000"
 preserveAspectRatio="xMidYMid meet">
<metadata>
Created by potrace 1.11, written by Peter Selinger 2001-2013
</metadata>
<g transform="translate(0.000000,290.000000) scale(0.100000,-0.100000)"
fill="#000000" stroke="none">
<path d="M167 2812 c-13 -15 -15 -183 -15 -1362 0 -1171 2 -1347 15 -1361 13
-16 118 -17 1288 -17 1187 0 1275 1 1292 17 15 14 18 32 17 110 l-1 93 -543
543 -543 543 0 72 0 72 543 543 543 543 0 96 c0 60 -5 101 -12 110 -11 13
-182 15 -1291 15 -1183 0 -1279 -2 -1293 -17z"/>
</g>
</svg>
