<?xml version="1.0" standalone="no"?>
<!DOCTYPE svg PUBLIC "-//W3C//DTD SVG 20010904//EN"
 "http://www.w3.org/TR/2001/REC-SVG-20010904/DTD/svg10.dtd">
<svg version="1.0" xmlns="http://www.w3.org/2000/svg"
 width="276.000000pt" height="276.000000pt" viewBox="0 0 276.000000 276.000000"
 preserveAspectRatio="xMidYMid meet">
<metadata>
Created by potrace 1.11, written by Peter Selinger 2001-2013
</metadata>
<g transform="translate(0.000000,276.000000) scale(0.100000,-0.100000)"
fill="#000000" stroke="none">
<path d="M90 2745 c-19 -23 -19 -2710 -1 -2728 9 -9 305 -12 1289 -13 1081 -1
1279 1 1293 13 13 11 16 34 17 110 l0 96 -544 545 -544 544 0 70 0 70 545 545
545 546 -2 94 c-1 67 -5 99 -15 109 -12 12 -204 14 -1292 14 -1142 0 -1280 -2
-1291 -15z"/>
</g>
</svg>
