<?xml version="1.0" encoding="utf-8"?>
<!-- Generator: Adobe Illustrator 23.0.2, SVG Export Plug-In . SVG Version: 6.00 Build 0)  -->
<svg version="1.1" xmlns="http://www.w3.org/2000/svg" xmlns:xlink="http://www.w3.org/1999/xlink" x="0px" y="0px"
	 viewBox="0 0 179 44.2" style="enable-background:new 0 0 179 44.2;" xml:space="preserve">
<style type="text/css">
	.st0{fill:#F3712A;}
	.st1{fill:#F3722B;}
	.st2{fill:#F2722B;}
	.st3{fill:#F3722C;}
	.st4{fill:#F17430;}
	.st5{fill:#F2722C;}
	.st6{fill:#EF732E;}
	.st7{fill:#FFFFFF;}
</style>
<g id="Layer_1_xA0_Image_1_">
</g>
<g id="Layer_1_copy_xA0_Image_1_">
	<path class="st0" d="M0.1,0.5c0.5-0.2,1-0.2,1.5-0.2c12.7,0,25.4,0,38.1,0c1.6,0,1.5,0,1.6,1.6c0.1,1.5-0.4,2.5-1.5,3.5
		c-5,4.9-9.9,9.9-14.9,14.8c-1.1,1.1-1.1,2.7,0,3.9c5,5,10,10.1,15.1,15.1c1.6,1.5,1.3,3,1,4.8c-13.4,0-26.8,0-40.1,0
		c-0.8,0-0.9-0.2-0.9-0.9C0.1,28.8,0.1,14.6,0.1,0.5z"/>
	<path class="st1" d="M71.6,44.1c-1.5,0.3-2-0.7-2.1-1.9c-0.1-1.8-1.2-2.1-2.6-1.9c-1.4,0.2-3.4-1-3.8,1.7c-0.1,1-0.1,2.2-1.8,2.1
		c-1.6-0.1-2.5-0.1-1.9-2.3c1.2-3.9,2-8,2.9-12c0.3-1.6,0.9-2.4,2.7-2.2c1,0.1,2,0.1,3,0c1.2-0.1,1.7,0.3,2,1.6
		c0.9,4.2,2.1,8.3,3.1,12.5C73.5,43.2,73.6,44.5,71.6,44.1z"/>
	<path class="st1" d="M49.9,34.5c1.4-1.9,2.8-3.7,4.1-5.6c0.9-1.4,2.3-1.7,3.5-0.9c1.3,0.9,0.1,1.9-0.4,2.7
		c-1.1,1.9-3.4,3.4-3.2,5.4c0.2,1.8,2.2,3.4,3.5,5c0.6,0.8,1.4,1.9,0.4,2.6c-1,0.7-2.4,0.7-3.4-0.4c-1.2-1.4-2.2-2.8-3.4-4.2
		c-0.3-0.3-0.6-0.7-1.1-0.6c-0.6,0.2-0.4,0.7-0.4,1.1c0,0.8-0.1,1.6,0,2.4c0.1,1.3-0.2,2-1.7,2c-1.5,0-2.1-0.4-2.1-2
		c0.1-4.1,0.1-8.3,0-12.4c0-1.3,0.3-2,1.8-2c1.6,0,2.1,0.6,2,2.1c-0.1,1.5,0,3,0,4.6C49.5,34.4,49.7,34.5,49.9,34.5z"/>
	<path class="st1" d="M91.3,34.5c1.4-1.9,2.8-3.7,4.1-5.6c0.9-1.4,2.4-1.7,3.5-1c1.3,0.9,0.2,2-0.5,3c-1.2,1.7-3.2,3.5-3.2,5.1
		c0.1,1.7,2.2,3.3,3.4,5c0.6,0.8,1.8,1.8,0.5,2.7c-1,0.7-2.4,0.7-3.4-0.5c-1.1-1.3-2.1-2.7-3.2-4c-0.3-0.4-0.7-1-1.3-0.7
		c-0.6,0.2-0.4,0.9-0.5,1.4c0,0.8-0.1,1.6,0,2.4c0.1,1.3-0.5,1.8-1.7,1.7c-1.2,0-1.8-0.3-1.8-1.7c0.1-4.3,0.1-8.7,0-13
		c0-1.3,0.4-1.8,1.7-1.8c1.3,0,1.8,0.5,1.8,1.7c-0.1,1.6,0,3.2,0,4.8C91,34.4,91.1,34.5,91.3,34.5z"/>
	<path class="st2" d="M135,39.2c0-3.3,0-6.6,0-9.9c0-0.7-0.3-1.7,1-1.7c1.3,0,1.1,1,1.1,1.7c0,4.2,0,8.5,0,12.7c0,0.8,0.4,1.9-1.1,2
		c-1.1,0.1-1.8-0.1-2.4-1.3c-1.5-3.3-3.2-6.6-5.2-9.8c0,3.1,0,6.2,0,9.2c0,0.9,0.1,1.9-1.3,1.8c-1.3-0.1-1-1-1-1.8
		c0-4.2,0-8.5,0-12.7c0-0.7-0.3-1.7,0.9-1.9c1-0.1,1.9,0,2.4,1.1c1.6,3.5,3.4,7,5.1,10.5C134.7,39.3,134.9,39.3,135,39.2z"/>
	<path class="st1" d="M124.1,42.7c0.1,0.8,0.1,1.3-0.7,1.4c-0.5,0-1.1,0.1-1.4-0.5c-0.2-0.5-0.5-1-0.5-1.5c0-2.7-1.9-2.4-3.7-2.5
		c-1.9-0.1-2.8,0.5-3,2.4c-0.1,1.1-0.3,2.5-1.8,2.1c-1.7-0.4-0.6-1.7-0.4-2.6c0.9-4,2-8,2.7-12.1c0.3-1.9,1.5-1.7,2.7-1.6
		c1.2,0.1,2.6-0.6,3,1.6C121.9,33.9,123.1,38.4,124.1,42.7z"/>
	<path class="st1" d="M139.9,35.8c0-1-0.1-2,0-3c0.2-1.7-0.8-4.3,0.5-4.8c2.3-0.8,5.1-0.8,7.6,0.2c1.3,0.6,2.1,1.7,2.1,3.2
		c0,3,0.1,5.9,0,8.9c-0.1,2-1.2,3.4-3.3,3.6c-1.9,0.2-3.8,0.1-5.7,0.2c-1.1,0-1.3-0.6-1.3-1.6C140,40.3,139.9,38,139.9,35.8z"/>
	<path class="st3" d="M74.9,35.8c0-2.1,0-4.1,0-6.2c0-1.4,0.6-1.9,1.9-1.9c1.5,0,1.9,0.5,1.8,1.9c-0.1,3.1,0.1,6.1-0.1,9.2
		c-0.1,1.6,0.5,2.1,2,1.9c1-0.1,2,0,3,0c1.3-0.1,1.8,0.4,1.8,1.7c0,1.3-0.4,1.9-1.7,1.8c-0.1,0-0.2,0-0.3,0
		C74.9,44.6,74.9,44.6,74.9,35.8z"/>
	<path class="st4" d="M168.2,36.9c0-1.2-0.1-2.3,0-3.5c0.1-2,0.3-3.9-2.8-3.4c-0.7,0.1-1.1-0.3-1.1-1.1c0-0.8,0.4-1.2,1.1-1.2
		c2.7,0,5.4,0,8.1,0c0.9,0,1.3,0.5,1.2,1.4c0,0.9-0.6,1.1-1.3,1c-3-0.5-2.9,1.3-2.8,3.3c0.1,3,0,5.9,0,8.9c0,0.9,0.1,1.9-1.3,1.9
		c-1.4,0-1.3-0.9-1.3-1.8C168.2,40.5,168.2,38.7,168.2,36.9z"/>
	<path class="st5" d="M101.8,35.8c0-2.1,0-4.1,0-6.2c0-0.8-0.3-1.9,1.1-1.9c1.5,0,1.2,1.1,1.2,1.9c0,3.3,0.1,6.7,0,10
		c-0.1,1.7,0.4,2.4,2.2,2.2c1.2-0.1,2.5,0,3.8,0c0.8,0,1.1,0.3,1.1,1.1c0,0.8-0.3,1.2-1.1,1.2c-2.4,0-4.9,0-7.3,0
		c-1.3,0-1-1-1.1-1.8C101.8,40.1,101.8,38,101.8,35.8z"/>
	<path class="st6" d="M157.7,27.7c1.1,0,2.2,0,3.2,0c1.1-0.1,1.4,0.5,1.4,1.5c0,0.9-0.5,1.2-1.3,1.2c-2.3,0-4.7,0-7,0
		c-0.9,0-1.3-0.4-1.3-1.3c0-0.8,0.2-1.4,1.2-1.4C155.2,27.7,156.4,27.7,157.7,27.7z"/>
	<path class="st3" d="M157.9,41.7c1.1,0,2.1,0,3.2,0c0.8,0,1.4,0,1.4,1.1c0,1-0.5,1.3-1.3,1.3c-2.4,0-4.8,0-7.2,0
		c-0.9,0-1.3-0.4-1.3-1.3c0-1.1,0.7-1.1,1.4-1.1C155.4,41.7,156.7,41.7,157.9,41.7z"/>
	<path class="st3" d="M157.3,37c-1.1,0-2.1,0-3.2,0c-0.8,0-1.4-0.2-1.4-1.2c0-0.9,0.3-1.4,1.2-1.4c2.3,0,4.7,0,7,0
		c0.7,0,1.1,0.4,1.1,1.2c0,0.9-0.3,1.3-1.2,1.4C159.7,37,158.5,37,157.3,37z"/>
	<path class="st7" d="M67.8,35.5c-0.1,0.5,0.2,1.2-0.6,1.3c-0.8,0-1.7,0.1-2.4-0.2c-0.5-0.2-0.2-0.9,0-1.4c0.3-1,0.6-2,0.8-3.1
		c0.1-0.5-0.2-1.2,0.7-1.1c0.3,0,0.8,0.5,0.9,0.9C67.5,33.1,67.6,34.3,67.8,35.5z"/>
	<path class="st7" d="M118.6,29.8c0.6,2.4,1.2,4.9,1.8,7.4c-1.4,0-2.7,0-4.2,0c0.6-2.5,1.2-5,1.7-7.4
		C118.1,29.8,118.3,29.8,118.6,29.8z"/>
	<path class="st7" d="M148,36c0,0.8,0,1.6,0,2.4c0,2.8-2.9,4.5-5.4,3.2c-0.8-0.4-0.5-1.1-0.5-1.6c0-2.5-0.1-5,0-7.5
		c0-1.1-0.8-2.9,1.7-2.7c2,0.1,4,0,4.3,2.8C148.1,33.7,148,34.9,148,36z"/>
</g>
</svg>
